<svg width="36" height="36" viewBox="0 0 36 36" fill="none" xmlns="http://www.w3.org/2000/svg">
<rect x="9" y="0.5" width="18" height="14" rx="1" fill="#9BA4AE"/>
<rect x="5.14258" y="3.5" width="25.7143" height="20" rx="2" fill="#5E6D7C"/>
<rect y="7.5" width="36" height="28" rx="2" fill="#202020"/>
<path d="M18.8279 23.5743C15.636 27.0332 12.1138 28.9746 10.9609 27.9107C9.80795 26.8467 11.4608 23.1802 14.6527 19.7214C17.8446 16.2626 21.3668 14.3211 22.5197 15.3851C23.6727 16.4491 22.0198 20.1155 18.8279 23.5743Z" fill="white"/>
<path d="M19.8137 24.5278C21.5161 22.6831 23.4569 21.7051 24.1486 22.3435C24.8404 22.9819 24.0212 24.9948 22.3188 26.8395C20.6165 28.6842 18.6757 29.6622 17.9839 29.0238C17.2922 28.3854 18.1114 26.3725 19.8137 24.5278Z" fill="white"/>
</svg>
